<svg width="1200px" height="600px" viewBox="0 0 1200 600" version="1.1" xmlns="http://www.w3.org/2000/svg">

	<style>

        .jegouar, .design {
            fill: #252829;
			stroke-width: 0;
			opacity: 0;
        }

        @keyframes revealpatch {
            0% {
                opacity: 0;
                transform: scale(0, 0);
            }
            75% {
                transform: scale(1.2, 1.2);
            }
            100% {
                opacity: 1;
                transform: scale(1, 1);
            }
        }

        path:nth-of-type(1) {
            transform-origin: 125.353px 60.5755px;
            animation: revealpatch 0.4s forwards;
        }
        path:nth-of-type(2) {
            transform-origin: 112.089px 151.943px;
            animation: revealpatch 0.4s 0.04s forwards;
        }
        path:nth-of-type(3) {
            transform-origin: 64.905px 244.5605px;
            animation: revealpatch 0.4s 0.08s forwards;
        }

        path:nth-of-type(4) {
            transform-origin: 272.218px 169.704px;
            animation: revealpatch 0.4s 0.16s forwards;
        }
        path:nth-of-type(5) {
            transform-origin: 300.2165px 129.2855px;
            animation: revealpatch 0.4s 0.2s forwards;
        }
        path:nth-of-type(6) {
            transform-origin: 221.482px 120.384px;
            animation: revealpatch 0.4s 0.24s forwards;
        }
        path:nth-of-type(7) {
            transform-origin: 192.0995px 170.4765px;
            animation: revealpatch 0.4s 0.28s forwards;
        }
        path:nth-of-type(8) {
            transform-origin: 197.7255px 227.7765px;
            animation: revealpatch 0.4s 0.32s forwards;
        }
        path:nth-of-type(9) {
            transform-origin: 269.0555px 250.132px;
            animation: revealpatch 0.4s 0.36s forwards;
        }
        path:nth-of-type(10) {
            transform-origin: 260.881px 32.6005px;
            animation: revealpatch 0.4s 0.4s forwards;
        }

        path:nth-of-type(11) {
            transform-origin: 460.245px 252.939px;
            animation: revealpatch 0.4s 0.48s forwards;
        }
        path:nth-of-type(12) {
            transform-origin: 389.5555px 195.1345px;
            animation: revealpatch 0.4s 0.52s forwards;
        }
        path:nth-of-type(13) {
            transform-origin: 426.997px 100.1535px;
            animation: revealpatch 0.4s 0.56s forwards;
        }
        path:nth-of-type(14) {
            transform-origin: 497.9505px 165.082px;
            animation: revealpatch 0.4s 0.6s forwards;
        }
        path:nth-of-type(15) {
            transform-origin: 496.1425px 287.2175px;
            animation: revealpatch 0.4s 0.64s forwards;
        }
        path:nth-of-type(16) {
            transform-origin: 438.643px 322.1495px;
            animation: revealpatch 0.4s 0.68s forwards;
        }
        path:nth-of-type(17) {
            transform-origin: 430.934px 150.1865px;
            animation: revealpatch 0.4s 0.72s forwards;
        }
        path:nth-of-type(18) {
            transform-origin: 445.105px 193.788px;
            animation: revealpatch 0.4s 0.76s forwards;
        }

        path:nth-of-type(19) {
            transform-origin: 605.2475px 107.3px;
            animation: revealpatch 0.4s 0.84s forwards;
        }
        path:nth-of-type(20) {
            transform-origin: 566.349px 153.6515px;
            animation: revealpatch 0.4s 0.88s forwards;
        }
        path:nth-of-type(21) {
            transform-origin: 588.472px 232.6805px;
            animation: revealpatch 0.4s 0.92s forwards;
        }
        path:nth-of-type(22) {
            transform-origin: 680.257px 214.1265px;
            animation: revealpatch 0.4s 0.96s forwards;
        }
        path:nth-of-type(23) {
            transform-origin: 674.436px 115.015px;
            animation: revealpatch 0.4s 1s forwards;
        }
        path:nth-of-type(24) {
            transform-origin: 638.5605px 158.252px;
            animation: revealpatch 0.4s 1.04s forwards;
        }
        path:nth-of-type(25) {
            transform-origin: 625.542px 207.35px;
            animation: revealpatch 0.4s 1.08s forwards;
        }

        path:nth-of-type(26) {
            transform-origin: 765.4945px 110.1265px;
            animation: revealpatch 0.4s 1.16s forwards;
        }
        path:nth-of-type(27) {
            transform-origin: 767.826px 172.0015px;
            animation: revealpatch 0.4s 1.2s forwards;
        }
        path:nth-of-type(28) {
            transform-origin: 778.5995px 226.498px;
            animation: revealpatch 0.4s 1.24s forwards;
        }
        path:nth-of-type(29) {
            transform-origin: 843.4285px 252.2645px;
            animation: revealpatch 0.4s 1.28s forwards;
        }
        path:nth-of-type(30) {
            transform-origin: 867.553px 211.5615px;
            animation: revealpatch 0.4s 1.32s forwards;
        }
        path:nth-of-type(31) {
            transform-origin: 869.7615px 127.6785px;
            animation: revealpatch 0.4s 1.36s forwards;
        }

        path:nth-of-type(32) {
            transform-origin: 957.556px 113.509px;
            animation: revealpatch 0.4s 1.44s forwards;
        }
        path:nth-of-type(33) {
            transform-origin: 1018.9065px 110.2335px;
            animation: revealpatch 0.4s 1.48s forwards;
        }
        path:nth-of-type(34) {
            transform-origin: 1038.448px 218.5875px;
            animation: revealpatch 0.4s 1.52s forwards;
        }
        path:nth-of-type(35) {
            transform-origin: 957.8435px 233.079px;
            animation: revealpatch 0.4s 1.56s forwards;
        }
        path:nth-of-type(36) {
            transform-origin: 954.6155px 177.5675px;
            animation: revealpatch 0.4s 1.6s forwards;
        }
        path:nth-of-type(37) {
            transform-origin: 1014.6875px 163.4585px;
            animation: revealpatch 0.4s 1.64s forwards;
        }

        path:nth-of-type(38) {
            transform-origin: 1111.2885px 251.262px;
            animation: revealpatch 0.4s 1.72s forwards;
        }
        path:nth-of-type(39) {
            transform-origin: 1109.4165px 201.555px;
            animation: revealpatch 0.4s 1.76s forwards;
        }
        path:nth-of-type(40) {
            transform-origin: 1109.6815px 150.6075px;
            animation: revealpatch 0.4s 1.8s forwards;
        }
        path:nth-of-type(41) {
            transform-origin: 1104.1735px 90.7075px;
            animation: revealpatch 0.4s 1.84s forwards;
        }
        path:nth-of-type(42) {
            transform-origin: 1141.7465px 107.7635px;
            animation: revealpatch 0.4s 1.88s forwards;
        }
        path:nth-of-type(43) {
            transform-origin: 1184.868px 118.6825px;
            animation: revealpatch 0.4s 1.92s forwards;
        }

		@keyframes Dslide {
			0% {
				transform: translateX(0);
                opacity: 0;
			}
			62.5% {
				transform: translateX(417.28292px);
                opacity: 0;
			}
			62.5% {
				transform: translateX(417.28292px);
			}
            75% {
                opacity: 1;
            }
			93.75% {
				transform: translateX(0);
                opacity: 1;
			}
            100% {
				opacity: 1;
			}
		}
        path:nth-of-type(44) {
            animation: Dslide 4s forwards;
		}
		
		@keyframes Eslide {
			0% {
				transform: translateX(0);
                opacity: 0;
			}
			62.5% {
				transform: translateX(237.89828px);
                opacity: 0;
			}
			63.75% {
				transform: translateX(237.89828px);
			}
            75% {
                opacity: 1;
            }
			95% {
				transform: translateX(0);
                opacity: 1;
			}
            100% {
				opacity: 1;
			}
		}
        path:nth-of-type(45) {
			animation: Eslide 4s forwards;
		}
		
		@keyframes Sslide {
			0% {
				transform: translateX(0);
                opacity: 0;
			}
			62.5% {
				transform: translateX(71.81084px);
                opacity: 0;
			}
			65% {
				transform: translateX(71.81084px);
			}
            75% {
                opacity: 1;
            }
			96.25% {
				transform: translateX(0);
                opacity: 1;
			}
            100% {
				opacity: 1;
			}
		}
        path:nth-of-type(46) {
			animation: Sslide 4s forwards;
		}
		
		@keyframes Islide {
			0% {
				transform: translateX(0);
                opacity: 0;
			}
			62.5% {
				transform: translateX(-70.32008px);
                opacity: 0;
			}
			66.25% {
				transform: translateX(-70.32008px);
			}
            75% {
                opacity: 1;
            }
			97.5% {
				transform: translateX(0);
                opacity: 1;
			}
            100% {
				opacity: 1;
			}
		}
        path:nth-of-type(47) {
			animation: Islide 4s forwards;
		}
		
		@keyframes Gslide {
			0% {
				transform: translateX(0);
                opacity: 0;
			}
			62.5% {
				transform: translateX(-219.57512px);
                opacity: 0;
			}
			67.5% {
				transform: translateX(-219.57512px);
			}
            75% {
                opacity: 1;
            }
			98.75% {
				transform: translateX(0);
                opacity: 1;
			}
            100% {
				opacity: 1;
			}
		}
        path:nth-of-type(48) {
			animation: Gslide 4s forwards;
		}
		
		@keyframes Nslide {
			0% {
				transform: translateX(0);
                opacity: 0;
			}
			62.5% {
				transform: translateX(-413.50026px);
                opacity: 0;
			}
			68.75% {
				transform: translateX(-413.50026px);
			}
            75% {
                opacity: 1;
            }
			100% {
				transform: translateX(0);
                opacity: 1;
			}
		}
        path:nth-of-type(49) {
			animation: Nslide 4s forwards;
		}

	</style>

    
    <path class="jegouar" d="m106.45 39.289c-4.717 9.1451 3.27 16.403 5.011 17.561-1.605 2.4267-1.748 9.5065 2.542 15.138-4.456 6.5863 0.084 23.063 3.227 27.633 6.651 9.6693 19.095 1.6043 26.226-5.3707 5.208-5.0946 3.18-25.504-3.58-29.453 3.744-7.5727 0.876-18.288-2.137-22.276 1e-3 -0.0018 2e-3 -0.0039 2e-3 -0.0061 2.14-6.7997-0.285-14.277-6.151-17.621 0-0.0019-1e-3 -4e-3 -2e-3 -6e-3 -7.112-17.158-35.162-3.1988-25.138 14.401z" />
    <path class="jegouar" d="m140.43 115.18c-6.803-0.022-16.697 5.015-22.17 8.87-4.655 3.279-3.773 17.759-2.475 23.348 0.044 0.19-7.846 7.419-0.704 17.632-2.714 5.067-2.388 10.996-1.797 16.53 1.334 12.494 22.742 6.292 27.662-1.077 6.785-10.159 4.585-19.114 3.592-21.554 4.683-4.377 4.094-15.088 0.377-18.695 4.29-7.482 6.24-22.803-4.485-25.054z" />
    <path class="jegouar" d="m10.569 241.23c0 0.022 0.0083 8.676 13.267 15.43 1.8201 6.432 9.7802 12.656 16.008 12.179 8.6874 12.06 29.32 9.864 39.946-6.515 15.781 14.837 42.975-0.417 28.534-13.793 16.658 0.028 23.167-9.416 21.121-19.594-2.818-14.017-15.277-13.296-23.915-10.669-11.126 3.385-15.133 17.618-12.152 22.706-4.3588-0.76-11.463 1.016-14.925 6.331-9.7478-10.303-21.717-5.407-23.033-3.676-3.4544-8.303-12.912-11.836-16.839-11.099 0.0505-8.847-8.2783-14.702-14.258-15.74-17.272-15.712-36.914 17.647-13.754 24.44z" />
    
    <path class="jegouar" d="m239.39 157.83c-9.409 6.23-7.426 20.225 7.161 26.225 4.317 1.776 14.582 4.186 21.962-0.711 5.446 5.895 21.598 3.984 29.785-1.042 7.71-4.734 20.979-23.348 4.894-28.11-11.673-3.457-25.236-1.452-29.659 3.669-9.261-8.167-24.701-6.283-34.143-0.031z" />
    <path class="jegouar" d="m277.84 84.897c-14.606-0.1207-16.158 15.827-12.97 25.926 1.384 4.383 7.509 9.067 13.34 8.257 0.741 3.163 4.877 12.853 18.18 18.176-3.855 14.335 17.187 34.918 29.924 36.38 5.562 0.638 9.189-6.606 10.205-12.036 0.31-1.663 2.974-17.422-10.186-27.152 3.569-10.979-7.236-35.64-28.744-35.539-1.3-10.883-12.013-13.948-19.749-14.012z" />
    <path class="jegouar" d="m222.5 96.741c-4.081-1.7849-17.92 3.0083-19.758 16.905-0.11 0.829-18.005 2.246-14.744 21.57 2.556 15.144 22.274 20.844 27.857 13.15 1.922-2.649 3.637-6.862 4.846-11.374 0.145-0.544 9.245-1.088 17.57-17.602 3.64 0.7 9.948-0.428 13.324-4.663 7.641-9.584 3.761-22.734-12.565-25.547-5.257-0.9054-14.021 1.3258-16.53 7.5605z" />
    <path class="jegouar" d="m170.78 181.91c-5.734-9.129 0.373-24.051 5.03-27.652 8.939-6.913 26.954-1.588 32.687 3.223 14.443 12.122 4.649 25.958-6.411 29.773-10.389 3.585-24.627 5.29-31.306-5.344z" />
    <path class="jegouar" d="m170.8 210.66c-2.206 5.556 0.48 8.646 2.849 11.502-1.242 6.062 2.026 14.026 10.403 17.224 1.625 7.328 5.294 15.853 18.3 17.209 10.481 1.092 25.998-5.12 22.657-18.627-1.588-6.417-8.166-10.054-11.492-9.726-1.654-6.851-5.875-9.295-8.982-11.121-0.358-0.21 2.542-7.507-5.394-14.723-8.293-7.542-24.137-2.321-28.341 8.262z" />
    <path class="jegouar" d="m298.55 226.41c-7.221 0.066-14.721 3.793-17.844 7.948-7.921-0.634-13.099 4.273-15.896 8.109-2.117-0.644-6.712-1.272-11.278-0.569-3.433-3.911-9.116-3.907-14.183-1.801-7.14 2.97-23.135 17.261-12.184 28.053 3.627 3.574 9.716 4.704 14.351 2.45 5.299 3.654 16.58 5.231 22.952-0.675 4.271 1.593 14.511 2.487 21.221-5.735 4.349 0.089 37.213-10.17 27.037-29.727-3.085-5.932-8.546-8.104-14.176-8.053z" />
    <path class="jegouar" d="m268.46 8.5026s-19.755-2.7535-14.725 21.525c-8.625-0.766-14.393 4.6958-16.135 10.733-7.945 5.0057-11.036 14.506-4.153 20.939 6.046 5.6496 12.48 3.783 17.43-0.8075 7.474-2.0863 12.748-9.5345 14.392-16.886 9.927-2.5066 14.415-11.928 13.692-21.369 11.084 0.5822 17.6-10.843 9.628-19.496-8.686-9.4255-20.129 5.3608-20.129 5.3608z" />
    
    <path class="jegouar" d="m431.89 238.3c-9.485 5.921-4.072 20.801 5.453 29.096 4.297 3.741 14.563 4.792 25.437 0.381 6.951 1.783 21.119-5.316 26.89-8.233 11.581-5.856-5.326-17.541-16.775-21.97-4.122-1.594-12.909-3.229-17.206 2.534-3.582-2.724-13.16-8.448-23.799-1.808z" />
    <path class="jegouar" d="m372.24 137.07c-16.081 8.391-9.03 38.685-2.825 45.199-10.086 14.9-0.511 40.874 9.353 42.402 0 0 0.023 27.869 26.958 32.333 14.56 2.414 14.618-20.983 0.37-40.546 5.999-16.623-16.242-31.134-21.296-33.612 5.472-4.679 19.899-23.27 17.412-40.059-1.579-10.661-17.031-12.469-29.972-5.717z" />
    <path class="jegouar" d="m416.58 84.924c-6.286 1.0771-15.862 3.0334-17.7 12.52-6.163 0.0338-15.492 4.9124-15.434 14.76 0.082 13.52 19.622 15.953 26.967 14.036 4.389-1.146 11.393-5.558 11.12-10.812 6.263-1.467 12.803-4.765 17.233-9.572 4.968 1.781 15.11 4.471 23.881 0.807 9.919-4.143 11.284-21.065-0.431-27.248-9.978-5.2665-41.984-12.341-45.636 5.5081z" />
    <path class="jegouar" d="m492.1 99.29c-17.024-1e-3 -18.984 15.228-9.536 25.833-5.043 14.437 1.458 21.936 1.458 21.936-0.564 2.33-1.871 9.426 1.423 15.046-5.36 10.031-1.087 17.658-1.087 17.658-2.723 3.776-2.678 11.278 1.087 18.282-2.878 8.063-3.535 25.388 2.114 30.552 6.02 5.499 16.915 1.025 27.364-13.283 3.23-4.423 3.894-16.78-0.347-22.972-0.701-1.022 2.762-4.779-0.355-16.71 0.191-2.829-0.206-5.876-0.743-8.792 0.706-0.882 7.932-10.547-5.228-21.135 5.99-3.859 13.66-9.286 9.567-20.469 2.249-18.052-15.962-25.945-25.717-25.946z" />
    <path class="jegouar" d="m489.63 259.59c-6.731 5.766-5.871 16.686-5.273 18.281-5.273 4.106-8.194 13.713-5.34 20.41-5.035 1.913-7.9 7.697-6.868 11.157 3.36 11.282 14.139 16.96 20.148 15.103 6.72-2.075 9.75-6.493 13.303-15.457 8.771-4.26 13.65-18.283 2.072-25.816 2.892-1.894 5.71-4.41 7.974-7.59 11.423-16.036 1.739-39.867-26.016-16.088z" />
    <path class="jegouar" d="m412.5 298.57c-8.747-0.058-23.024 8.247-13.996 22.672 0.333 8.017 7.331 13.547 13.311 13.719 6.273 13.89 24.194 13.964 34.01 1.651 5.13 5.294 14.211 9.033 22.05 9.115 6.443 0.066 12.496-1.937 13.618-7.93 1.217-6.517-3.918-13.742-18.367-19.696-4.403-1.815-16.73-0.849-18.254 2.48-1.127-1.128-4.313-3.789-9.678-4.308-1.019-2.741-3.763-6.863-10.089-8.308-2.841-7.077-7.8-9.361-12.605-9.395z" />
    <path class="jegouar" d="m411.99 157.39c-2.686-17.176 5.199-22.691 11.499-25.148 13.824-5.391 26.934 1.457 26.929 14.006 0 4.67-4.196 12.885-8.258 16.171-10.723 8.68-27.326 13.181-30.17-5.029z" />
    <path class="jegouar" d="m445.83 170.19c-5.662 4.055-6.104 11.505-4.244 17.623-6.948 1.036-14.636 3.911-18.759 9.736-14.906 21.071 35.209 31.021 44.215 14.71 2.363-4.277 3.011-9.785 0.73-13.636 3.218-4.769 3.919-10.805-2.876-23.356-4.945-9.132-12.096-10.068-19.066-5.077z" />
    
    <path class="jegouar" d="m620.36 81.984c-7.3-0.159-17.608 3.4705-21.738 12.266-7.514-1.1726-20.656 0.2191-21.185 11.506-0.344 7.339-0.717 31.062 13.287 26.219 6.898-2.385 16.886-9.569 16.881-14.723 5.421 1.533 17.907-3.614 21.195-7.901 8.605-11.205 3.81-27.1-8.44-27.367z" />
    <path class="jegouar" d="m560.91 126.58c-8.274 3.393-8.274 10.878-6.832 13.662-1.537 0.656-8.62 6.042-6.826 16.163-6.699 4.644-9.626 15.526-2.514 20.829 5.774 4.303 24.26 7.439 28.747 1.807 3.522-4.422 2.601-9.555 1.797-12.589 6.802-2.452 10.054-9.256 9.702-16.163-0.034-0.262 10.819-8.607 5.739-18.315-3.577-6.839-23.04-8.172-29.813-5.394z" />
    <path class="jegouar" d="m543.67 204.55c-5.043 8.903 0.648 22.417 6.467 23.705-0.04 5.864 1.423 15.965 12.927 19.766-0.878 5.913 8.819 12.135 14.013 11.855 0.918 5.309 9.496 8.608 16.528 7.182 4.63 6.482 19.143 9.049 31.605 5.744 9.422-2.495 12.679-17.96 7.673-26.25-3.379-5.596-11.576-4.418-17.394-1.704-2.781-4.048-13.317-7.955-17.211-7.613-0.058 0-3.81-7.909-13.29-8.62-0.625-3.213-1.884-7.248-7.549-7.897 1.175-1.761 6.638-19.476-6.824-28.02-5.752-3.649-19.391-1.487-26.945 11.852z" />
    <path class="jegouar" d="m686.8 177.06c-6.374 4.62-8.385 14.52-5.882 19.911-2.143 3.562-2.921 7.421-2.895 11.532-3.228 1.382-8.263 5.899-8.263 13.298-4.423 2.179-6.918 4.817-6.826 10.411 0.13 0.55-8.89-3.174-16.88 5.75-9.819 10.964 5.847 25.142 21.563 25.142 8.697 0 15.912-4.341 17.6-12.923 6.991-0.99 14.47-7.612 11.862-18.333-0.114-0.464 11.821-7.699 10.414-19.028 4.122-3.224 8.265-11.679 5.389-20.495 5.916-7.216 5.901-18.927 1.44-25.851-8.351-5.07-20.757 5.703-27.522 10.586z" />
    <path class="jegouar" d="m656.47 90.289c-7.261 0.0465-8.729 11.233-8.628 23.013 0.066 7.559 9.924 12.322 15.089 11.136 2.267 17.045 34.726 18.61 37.372 10.771 4.255-12.612-10.856-28.644-24.08-32.337-1.635-5.5108-11.059-12.638-19.753-12.583z" />
    <path class="jegouar" d="m641.48 139.12c-6.08-4.182-16.515-5.639-24.485 0.769-10.16 8.171-1.251 32.808 15.823 30.901 1.907 10.094 31.128 20.476 31.591-6.825 0.473-27.96-15.055-34.181-22.929-24.845z" />
    <path class="jegouar" d="m596.8 187.25c-7.591 6.44-5.678 21.925-1.077 27.309 4.286 5.016 18.656-4.009 25.056-9.94-8.147 10.876 7.726 24.993 18.854 25.987 25.916 2.315 27.983-28.805-3.59-32.687-3.665-0.45-9.282 1.278-13.063 4.417 3.718-4.436 4.977-8.524 2.567-13.279-3.265-6.438-23.281-6.444-28.747-1.807z" />

    <path class="jegouar" d="m759.95 110.32c-14.944 9.955-14.69 23.647-9.001 27.396 8.146 5.371 23.04-1.365 29.461-9.337 5.602-6.951 3.197-16.283-1.791-20.106 3.792-6.266 6.273-27.673-12.316-27.664-16.719 0.0082-21.17 20.159-6.353 29.711z" />
    <path class="jegouar" d="m752.02 156.41c-4.017 5.144-2.024 14.101 2.881 17.603-4.498 5.739-4.519 12.982-1.079 17.24 7.458 9.232 24.54 6.536 30.543-5.02 1.752-3.373 2.474-10.883-1.436-14.73 1.386-3.435 1.698-16.667-2.522-21.574-4.59-5.339-21.238-2.672-28.387 6.481z" />
    <path class="jegouar" d="m757.78 206.7c-0.603 3.688 0.194 7.909 1.786 10.075-2.233 8.785-1.082 22.157 8.631 24.782 0 3.342 5.083 13.281 12.208 14.368 7.046 1.076 17.013-14.382 19.05-21.206 1.035-3.464-3.016-7.933-6.112-7.539-0.021 0 1.828-7.254-4.305-10.411 3.101-4.716 1.757-12.726-1.804-15.447-8.165-6.236-27.485-6.697-29.454 5.378z" />
    <path class="jegouar" d="m830.7 235.44c-0.402 0.329-5.257-3.785-17.793 1.998-10.785 4.976-13.743 20.822-6.956 28.397 5.379 6.003 15.528 2.474 19.357-2.019 1.696-1.991 3.63-5.276 5.217-8.934 10.345 13.543 23.789 4.657 26.467 2.666-1.657 12.158 9.112 20.317 18.452 16.629 6.53-2.574 10.819-7.652 8.419-18.973-2.117-9.974-13.203-12.134-20.5-7.595 1.944-13.147-15.828-26.054-32.663-12.169z" />
    <path class="jegouar" d="m855.48 182.98c-6.316 6.242-5.567 24.133-2.162 28.034-6.395 2.077-4.691 15.327-1.788 18.681 10.086 11.654 26.987 18.446 30.89 8.621 3.379-8.507 4.715-20.003-0.709-22.987 4.937-7.185 6.432-15.019 1.079-22.276-0.984-1.163-17.224-20.041-27.31-10.073z" />
    <path class="jegouar" d="m854.4 114c-1.979 8.982-2.067 21.487 3.582 25.155-3.23 3.484-8.964 17.867-3.582 24.07 9.903 11.417 25.939-0.842 31.26-6.819 4.739-5.325 3.707-15.279-3.582-23.711 2.931-0.786 7.797-13.771-0.376-24.444 3.281-31.842-43.511-24.935-27.302 5.749z" />

    <path class="jegouar" d="m951.04 96.047c-5.779-1.0279-18.804 7.1812-21.558 19.76-6.856 6.706-4.056 16.128-1.437 19.76 9.993 13.856 25.458 1.191 30.536-8.265 4.765 0.594 9.361-1.906 12.575-6.465 4.035-0.105 6.89-0.719 11.139-3.593 10.668-7.215 10.531-25.984-2.881-31.254-6.734-2.6467-23.863 2.953-28.374 10.057z" />
    <path class="jegouar" d="m1010.5 81.272c-14.445-0.1883-26.499 10.136-16.191 23.156 4.744 5.991 13.391 7.952 21.071 8.1-1.84 8.658 0.32 24.766 15.87 26.583 10.76 1.257 15.32-11.203 16.08-22.945 0.47-7.239-4.69-16.019-14.01-19.04 0.16-6.2039-9.38-15.852-22.82-15.854z" />
    <path class="jegouar" d="m1029 176.88c-2.85 5.746-1.55 15.635 2.52 19.758-4.45 5.317-5.44 13.747 0 24.07-2.15 2.571-3.1 4.088-3.91 6.34-17.86 4.054-14.3 16.975-0.09 34.15 8.01 9.679 27.7 1.337 23.12-21.035 11-4.017 8.55-20.083 6.74-24.845 6.2-6.137 3.54-15.436 2.87-17.961 1.64-4.596 1.3-7.368-1.43-12.214-6.92-12.268-25.03-17.912-29.82-8.263z" />
    <path class="jegouar" d="m920.86 207.78c-3.262 5.969-2.005 15.377 1.421 17.234-0.518 9.08-0.73 23.25 13.306 29.827 4.863 7.939 13.079 14.242 26.948 12.216 1.646 1.203 8.599 5.341 19.13-1.294 9.633-6.069 19.602-17.202 12.84-24.573-4.667-5.089-14.018-4.404-19.037-2.514-4.302-6.516-17.632-2.769-23.495-0.719-0.781-6.134-3.051-13.132-7.935-18.695 11.038-8.953 6.3-17.724 5.204-19.026-7.44-8.84-24.802 0.992-28.382 7.544z" />
    <path class="jegouar" d="m951.87 164.99c-11.512 2.004-17.685 5.826-22.389 15.843-5.726 12.194 13.004 17.885 19.759 19.4 4.061 0.91 9.406-1.778 11.856-8.264 0.185-0.492 11.152 1.562 15.092-8.622 2.291-5.922 8.548-25.305 1.074-27.662-12.795-4.034-26.138 5.802-25.392 9.305z" />
    <path class="jegouar" d="m1009.6 153.89c-2.15-2.307-8.37-2.128-10.785-0.718-8.07 4.719-7.21 19.157 2.165 24.429 5.87 3.305 13.4 1.751 16.16-1.438 2.82 3.847 9.4 2.611 11.86 0.72 10.39-8.004 9.34-20.707-3.23-28.382-1.36-0.826-9.41-3.498-16.17 5.389z" />

    <path class="jegouar" d="m1097.3 233.29c-2.48 3.594-2.48 11.362 0.36 17.604-12.31 30.062 31.06 31.123 26.22 7.185 4.49-5.419 3.67-12.846 1.44-16.527-7.15-11.784-20.05-19.829-28.02-8.262z" />
    <path class="jegouar" d="m1094.4 214.61c-3.31-2.949-5.95-14.45 1.79-20.477 10.08-7.849 24.72-15.513 29.82-3.952 2.51 5.688 2.15 8.762-0.72 14.37-7.47 14.609-21.87 18.097-30.89 10.059z" />
    <path class="jegouar" d="m1093 121.56c-8.42 11.529 0.46 26.678 13.86 29.743-14.34 6.999-19.61 21.329-10.27 34.204 5.02 5.478 20.91-8.811 26.22-14.012 3.52-3.446 4.31-13.954 0-22.99 5.79-4.261 7.74-15.388 6.47-19.4-5.14-16.211-27.71-19.275-36.28-7.545z" />
    <path class="jegouar" d="m1105.5 71.265c-4.58-0.1688-10.91 3.1432-11.49 11.496-5.6 1.5565-6.98 10.288-2.87 20.118 3.51 8.424 14.53 10.034 20.62 2.182 12.77-3.222 9.37-33.22-6.26-33.796z" />
    <path class="jegouar" d="m1153.9 86.379c-1.94 0.0592-10.55 0.9464-11.93 11.979-3.13-5.8806-14.57-10.022-23.2-0.5083-8.97 9.8924-4.01 30.906 10.42 31.255 10.96 0.805 13.3-8.767 14.46-17.695 4.99 13.324 15.35 12.093 17.88 10.868 15.69-7.601 4.41-36.266-7.63-35.899z" />
    <path class="jegouar" d="m1193.2 105.39c19.33 10.914-7.13 42.103-21.19 20.837-8.95-13.533 10.43-26.915 21.19-20.837z" />

    <path class="design" d="m132.73 433.2v164.47h37.28c9.865 0 18.636-1.431 26.318-4.294 7.757-2.937 14.347-7.265 19.769-12.988 5.423-5.726 9.527-12.84 12.313-21.352 2.862-8.509 4.293-18.373 4.293-29.594v-27.903c0-11.22-1.431-21.087-4.293-29.596-2.786-8.509-6.852-15.626-12.199-21.349-5.347-5.8-11.748-10.131-19.203-12.994-7.456-2.937-15.816-4.402-25.079-4.402zm20.785 17.846h18.414c6.778 0 12.689 1.018 17.735 3.05 5.046 1.961 9.225 4.972 12.539 9.039 3.313 4.066 5.798 9.263 7.455 15.589 1.657 6.323 2.486 13.856 2.486 22.59v28.13c0 11.071-1.469 20.368-4.406 27.901-2.937 7.456-7.493 13.104-13.668 16.944-6.175 3.765-14.195 5.648-24.06 5.648h-16.495z"/>
    <path class="design" d="m317.88 433.2v164.47h88.448v-17.735h-67.665v-58.287h58.063v-17.735h-58.063v-52.869h66.538v-17.846z"/>
    <path class="design" d="m557.92 556.1c0.468-8.919-3.442-18.124-11.393-22.685-14.655-9.34-32.811-11.742-46.609-22.667-11.946-8.321-18.793-22.95-17.632-37.454 0.217-17.452 12.115-33.901 28.721-39.376 17.155-5.715 38.044-3.701 51.723 8.946 10.581 9.427 16.01 23.762 15.976 37.777h-20.786c0.294-11.832-4.596-25.479-16.571-29.879-11.157-3.792-26.059-2.839-33.451 7.517-6.71 10.22-6.948 25.82 2.579 34.451 13.82 12.615 33.91 13.562 48.774 24.506 11.179 7.146 18.42 19.605 19.201 32.837 1.852 15.729-3.913 33.2-17.846 41.838-15.875 9.988-36.846 10.372-53.864 3.078-16.558-7.036-28.621-23.794-28.84-41.955-1.701-4.821 3.932-2.498 6.62-3.032h14.094c-0.534 11.871 5.255 24.542 16.682 29.299 10.909 4.252 24.808 4.488 34.412-3.021 5.89-4.85 8.284-12.769 8.21-20.18z"/>
    <path class="design" d="m680.71 433.2v164.47h-20.783v-164.47z"/>
    <path class="design" d="m872.98 515.78v61.341c-8.21 11.07-20.259 19.508-34.052 21.638-19.042 3.223-40.786 0.582-54.806-13.912-14.951-15.377-18.418-37.838-17.894-58.438 0.397-21.04-1.899-42.762 5.467-62.937 4.984-15.3 18.05-27.728 33.983-30.847 18.042-3.71 39.224-2.027 52.927 11.623 9.7 9.736 13.777 23.646 14.375 37.081h-20.786c-0.698-11.97-5.588-25.641-17.671-30.311-11.11-3.818-24.779-3.185-34.261 4.313-11.285 9.697-12.602 25.853-13.184 39.735 0.01 15.029-0.373 30.075 0.301 45.09 1.111 14.701 6.207 31.515 20.371 38.59 9.665 4.537 21.129 4.363 31.228 1.423 4.874-2.23 12.288-5.294 13.327-10.808v-35.957h-30.159v-17.624z"/>
    <path class="design" d="m1067.3 433.2v164.47h-20.89l-65.861-126.86v126.86h-20.785v-164.47h20.785l66.201 127.2v-127.2z"/>
    
</svg>
